<svg width="512" height="512" xmlns="http://www.w3.org/2000/svg">

 <g>
  <title>background</title>
  <rect fill="none" id="canvas_background" height="402" width="582" y="-1" x="-1"/>
 </g>
 <g>
  <title fill="#410a1d">Layer 1</title>
  <path fill="#410a1d" id="svg_3" d="m513.34,468.21l-514.68,0c-4.45,0 -8.04,-3.6 -8.04,-8.04l0,-408.34c0,-4.44 3.6,-8.04 8.04,-8.04l514.68,0c4.45,0 8.04,3.6 8.04,8.04l0,408.34c0,4.44 -3.59,8.04 -8.04,8.04zm-506.64,-16.08l498.6,0l0,-392.26l-498.6,0l0,392.26z"/>
  <path fill="#410a1d" id="svg_5" d="m513.34,172.08l-514.68,0c-4.45,0 -8.04,-3.6 -8.04,-8.04c0,-4.44 3.6,-8.04 8.04,-8.04l514.68,0c4.45,0 8.04,3.6 8.04,8.04c0,4.44 -3.59,8.04 -8.04,8.04z"/>
  <path fill="#410a1d" id="svg_7" d="m62.81,142.78c-19.22,0 -34.85,-15.63 -34.85,-34.85c0,-19.21 15.63,-34.85 34.85,-34.85s34.85,15.63 34.85,34.85c0,19.22 -15.64,34.85 -34.85,34.85zm0,-53.61c-10.34,0 -18.76,8.41 -18.76,18.76s8.42,18.77 18.76,18.77c10.35,0 18.77,-8.42 18.77,-18.77s-8.42,-18.76 -18.77,-18.76z"/>
  <path fill="#410a1d" id="svg_9" d="m148.59,142.78c-19.22,0 -34.85,-15.63 -34.85,-34.85c0,-19.21 15.63,-34.85 34.85,-34.85s34.85,15.63 34.85,34.85c-0.01,19.22 -15.63,34.85 -34.85,34.85zm0,-53.61c-10.34,0 -18.76,8.41 -18.76,18.76s8.42,18.77 18.76,18.77s18.76,-8.42 18.76,-18.77s-8.42,-18.76 -18.76,-18.76z"/>
  <path fill="#410a1d" id="svg_11" d="m234.37,142.78c-19.22,0 -34.85,-15.63 -34.85,-34.85c0,-19.21 15.64,-34.85 34.85,-34.85s34.85,15.63 34.85,34.85c0,19.22 -15.63,34.85 -34.85,34.85zm0,-53.61c-10.35,0 -18.77,8.41 -18.77,18.76s8.42,18.77 18.77,18.77c10.34,0 18.76,-8.42 18.76,-18.77s-8.42,-18.76 -18.76,-18.76z"/>
  <path fill="#410a1d" id="svg_13" d="m453.66,143.74l-126.62,0c-11.03,0 -20,-8.98 -20,-20.01l0,-31.45c0,-11.03 8.98,-20.01 20,-20.01l126.62,0c11.03,0 20,8.98 20,20.01l0,31.46c0.01,11.03 -8.97,20 -20,20zm-126.62,-55.38c-2.16,0 -3.92,1.76 -3.92,3.92l0,31.46c0,2.16 1.76,3.92 3.92,3.92l126.62,0c2.16,0 3.92,-1.76 3.92,-3.92l0,-31.46c0,-2.16 -1.76,-3.92 -3.92,-3.92l-126.62,0z"/>
  <path fill="#410a1d" id="svg_15" d="m513.34,468.21l-514.68,0c-4.45,0 -8.04,-3.6 -8.04,-8.04l0,-408.34c0,-4.44 3.6,-8.04 8.04,-8.04l514.68,0c4.45,0 8.04,3.6 8.04,8.04l0,408.34c0,4.44 -3.59,8.04 -8.04,8.04zm-506.64,-16.08l498.6,0l0,-392.26l-498.6,0l0,392.26z"/>
  <path fill="#410a1d" id="svg_17" d="m62.81,142.78c-19.22,0 -34.85,-15.63 -34.85,-34.85c0,-19.21 15.63,-34.85 34.85,-34.85s34.85,15.63 34.85,34.85c0,19.22 -15.64,34.85 -34.85,34.85zm0,-53.61c-10.34,0 -18.76,8.41 -18.76,18.76s8.42,18.77 18.76,18.77c10.35,0 18.77,-8.42 18.77,-18.77s-8.42,-18.76 -18.77,-18.76z"/>
  <path fill="#410a1d" id="svg_19" d="m148.59,142.78c-19.22,0 -34.85,-15.63 -34.85,-34.85c0,-19.21 15.63,-34.85 34.85,-34.85s34.85,15.63 34.85,34.85c-0.01,19.22 -15.63,34.85 -34.85,34.85zm0,-53.61c-10.34,0 -18.76,8.41 -18.76,18.76s8.42,18.77 18.76,18.77s18.76,-8.42 18.76,-18.77s-8.42,-18.76 -18.76,-18.76z"/>
  <path fill="#410a1d" id="svg_21" d="m234.37,142.78c-19.22,0 -34.85,-15.63 -34.85,-34.85c0,-19.21 15.64,-34.85 34.85,-34.85s34.85,15.63 34.85,34.85c0,19.22 -15.63,34.85 -34.85,34.85zm0,-53.61c-10.35,0 -18.77,8.41 -18.77,18.76s8.42,18.77 18.77,18.77c10.34,0 18.76,-8.42 18.76,-18.77s-8.42,-18.76 -18.76,-18.76z"/>
  <path fill="#410a1d" id="svg_23" d="m453.66,143.74l-126.62,0c-11.03,0 -20,-8.98 -20,-20.01l0,-31.45c0,-11.03 8.98,-20.01 20,-20.01l126.62,0c11.03,0 20,8.98 20,20.01l0,31.46c0.01,11.03 -8.97,20 -20,20zm-126.62,-55.38c-2.16,0 -3.92,1.76 -3.92,3.92l0,31.46c0,2.16 1.76,3.92 3.92,3.92l126.62,0c2.16,0 3.92,-1.76 3.92,-3.92l0,-31.46c0,-2.16 -1.76,-3.92 -3.92,-3.92l-126.62,0z"/>
  <path fill="#410a1d" stroke-miterlimit="10" stroke-linejoin="round" stroke-linecap="round" stroke-width="2" stroke="#000000" id="svg_25" d="m102.81,326.41l77.84,-40.09l0,11.57l-65.58,32.88l0,0.34l65.58,32.87l0,11.58l-77.84,-40.09l0,-9.06z" class="st1"/>
  <path fill="#410a1d" stroke-miterlimit="10" stroke-linejoin="round" stroke-linecap="round" stroke-width="2" stroke="#000000" id="svg_26" d="m227.07,382.27l46.81,-121.61l11.4,0l-46.97,121.61l-11.24,0z" class="st1"/>
  <path fill="#410a1d" stroke-miterlimit="10" stroke-linejoin="round" stroke-linecap="round" stroke-width="2" stroke="#000000" id="svg_27" d="m409.21,335.64l-77.84,39.92l0,-11.58l66.09,-32.87l0,-0.34l-66.09,-32.88l0,-11.57l77.84,39.92l0,9.4z" class="st1"/>
  <line stroke="null" stroke-linecap="null" stroke-linejoin="null" id="svg_29" y2="455.583341" x2="7.481486" y1="60.027793" x1="7.481486" stroke-opacity="null" stroke-width="null" fill="none"/>
  <line stroke-linecap="null" stroke-linejoin="null" id="svg_31" y2="412.620379" x2="111.925928" y1="22.990756" x1="126.740743" stroke-width="null" stroke="null" fill="none"/>
  <line stroke="#000000" stroke-linecap="null" stroke-linejoin="null" id="svg_32" y2="451.879637" x2="6.000004" y1="60.027793" x1="7.481486" stroke-width="null" fill="none"/>
  <rect stroke="#410a1d" transform="rotate(90.16413116455078 6.597671508789081,260.75537109375) " id="svg_36" height="13.333333" width="409.604824" y="254.0887" x="-198.20474" stroke-width="NaN" fill="#410a1d"/>
  <rect stroke="#410a1d" transform="rotate(90.16413116455078 504.3754272460938,258.53314208984375) " id="svg_37" height="13.333333" width="409.604824" y="251.866478" x="299.573031" stroke-width="NaN" fill="#410a1d"/>
  <rect stroke="#410a1d" transform="rotate(90.16413116455078 6.597671508789081,260.75537109375) " id="svg_38" height="13.333333" width="409.604824" y="254.0887" x="-198.20474" stroke-width="NaN" fill="#410a1d"/>
 </g>
</svg>