<svg width="512" height="512" xmlns="http://www.w3.org/2000/svg">

 <g>
  <title>background</title>
  <rect fill="none" id="canvas_background" height="402" width="582" y="-1" x="-1"/>
 </g>
 <g>
  <title>Layer 1</title>
  <path fill="#ffffff" id="svg_2" d="m66.259259,149.440741c11,5.8 163.8,89.1 169.5,92.1c5.7,3 11.5,4.4 20.5,4.4c9,0 14.8,-1.4 20.5,-4.4c5.7,-3 158.5,-86.3 169.5,-92.1c4.1,-2.1 11,-5.9 12.5,-10.2c2.6,-7.6 -0.2,-10.5 -11.3,-10.5l-191.2,0l-191.2,0c-11.1,0 -13.9,3 -11.3,10.5c1.5,4.4 8.4,8.1 12.5,10.2z"/>
  <path fill="#ffffff" id="svg_3" d="m455.7,153.2c-8.2,4.2 -81.8,56.6 -130.5,88.1l82.2,92.5c2,2 2.9,4.4 1.8,5.6c-1.2,1.1 -3.8,0.5 -5.9,-1.4l-98.6,-83.2c-14.9,9.6 -25.4,16.2 -27.2,17.2c-7.7,3.9 -13.1,4.4 -20.5,4.4c-7.4,0 -12.8,-0.5 -20.5,-4.4c-1.9,-1 -12.3,-7.6 -27.2,-17.2l-98.6,83.2c-2,2 -4.7,2.6 -5.9,1.4c-1.2,-1.1 -0.3,-3.6 1.7,-5.6l82.1,-92.5c-48.7,-31.5 -123.1,-83.9 -131.3,-88.1c-8.8,-4.5 -9.3,0.8 -9.3,4.9c0,4.1 0,205 0,205c0,9.3 13.7,20.9 23.5,20.9l185.5,0l185.5,0c9.8,0 21.5,-11.7 21.5,-20.9c0,0 0,-201 0,-205c0,-4.2 0.6,-9.4 -8.3,-4.9z"/>
 </g>
</svg>