<svg width="32" height="32" xmlns="http://www.w3.org/2000/svg">

 <g>
  <title>background</title>
  <rect fill="none" id="canvas_background" height="402" width="582" y="-1" x="-1"/>
 </g>
 <g>
  <title>Layer 1</title>
  <path id="svg_3" fill="#410a1d" d="m1.5,20c-0.276,0 -0.5,-0.224 -0.5,-0.5l0,-16c0,-0.827 0.673,-1.5 1.5,-1.5l27,0c0.827,0 1.5,0.673 1.5,1.5l0,1.5c0,0.276 -0.224,0.5 -0.5,0.5s-0.5,-0.224 -0.5,-0.5l0,-1.5c0,-0.275 -0.225,-0.5 -0.5,-0.5l-27,0c-0.275,0 -0.5,0.225 -0.5,0.5l0,16c0,0.276 -0.224,0.5 -0.5,0.5z"/>
  <path id="svg_4" fill="#410a1d" d="m16,31l-5.5,0c-0.276,0 -0.5,-0.224 -0.5,-0.5s0.224,-0.5 0.5,-0.5l1,0c0.827,0 1.5,-0.673 1.5,-1.5l0,-2.5c0,-0.276 0.224,-0.5 0.5,-0.5s0.5,0.224 0.5,0.5l0,2.5c0,0.563 -0.187,1.082 -0.501,1.5l2.501,0c0.276,0 0.5,0.224 0.5,0.5s-0.224,0.5 -0.5,0.5z"/>
  <path id="svg_5" fill="#410a1d" d="m15.5,26l-13,0c-0.827,0 -1.5,-0.673 -1.5,-1.5l0,-3c0,-0.276 0.224,-0.5 0.5,-0.5l14,0c0.276,0 0.5,0.224 0.5,0.5s-0.224,0.5 -0.5,0.5l-13.5,0l0,2.5c0,0.275 0.225,0.5 0.5,0.5l13,0c0.276,0 0.5,0.224 0.5,0.5s-0.224,0.5 -0.5,0.5z"/>
  <path id="svg_9" fill="#410a1d" d="m21.5,9l5,0c0.276,0 0.5,-0.224 0.5,-0.5s-0.224,-0.5 -0.5,-0.5l-5,0c-0.276,0 -0.5,0.224 -0.5,0.5s0.224,0.5 0.5,0.5z"/>
  <path id="svg_12" fill="#410a1d" d="m23.5,29l1,0c0.276,0 0.5,-0.224 0.5,-0.5s-0.224,-0.5 -0.5,-0.5l-1,0c-0.276,0 -0.5,0.224 -0.5,0.5s0.224,0.5 0.5,0.5z"/>
  <path id="svg_13" fill="#410a1d" d="m28.5,31l-9,0c-1.379,0 -2.5,-1.121 -2.5,-2.5l0,-20c0,-1.379 1.121,-2.5 2.5,-2.5l9,0c1.379,0 2.5,1.121 2.5,2.5l0,20c0,1.379 -1.121,2.5 -2.5,2.5zm-9,-24c-0.827,0 -1.5,0.673 -1.5,1.5l0,20c0,0.827 0.673,1.5 1.5,1.5l9,0c0.827,0 1.5,-0.673 1.5,-1.5l0,-20c0,-0.827 -0.673,-1.5 -1.5,-1.5l-9,0z"/>
 </g>
</svg>