<svg width="64" height="64" xmlns="http://www.w3.org/2000/svg">

 <g>
  <title>background</title>
  <rect fill="none" id="canvas_background" height="402" width="582" y="-1" x="-1"/>
 </g>
 <g>
  <title>Layer 1</title>
  <path fill="#410a1d" id="svg_2" d="m46,22l-6.671,0l5.557,-6.352c0.718,-0.82 1.114,-1.873 1.114,-2.963l0,-0.185c0,-2.481 -2.019,-4.5 -4.5,-4.5s-4.5,2.019 -4.5,4.5l0,1.5l2,0l0,-1.5c0,-1.379 1.121,-2.5 2.5,-2.5s2.5,1.121 2.5,2.5l0,0.185c0,0.606 -0.22,1.19 -0.619,1.646l-6.381,7.293l0,2.376l9,0l0,-2z"/>
  <path fill="#410a1d" id="svg_3" d="m54,24l2,0l0,-3l2,0l0,-2l-2,0l0,-11l-2.618,0l-5.382,10.764l0,2.236l6,0l0,3zm-3.882,-5l3.882,-7.764l0,7.764l-3.882,0z"/>
  <path fill="#410a1d" id="svg_4" d="m50.405,32.627c7.191,-1.566 12.595,-7.974 12.595,-15.627c0,-8.822 -7.178,-16 -16,-16c-7.653,0 -14.061,5.404 -15.627,12.595c-1.765,-0.388 -3.566,-0.595 -5.373,-0.595c-13.785,0 -25,11.215 -25,25s11.215,25 25,25s25,-11.215 25,-25c0,-1.807 -0.207,-3.608 -0.595,-5.373zm-3.405,-29.627c7.72,0 14,6.28 14,14s-6.28,14 -14,14s-14,-6.28 -14,-14s6.28,-14 14,-14zm-2.039,34l-1.961,0l0,2l1.949,0c-0.235,4.484 -2.024,8.553 -4.847,11.688l-1.375,-1.375l-1.414,1.414l1.375,1.375c-3.135,2.824 -7.204,4.612 -11.688,4.847l0,-1.949l-2,0l0,1.949c-4.484,-0.235 -8.553,-2.024 -11.688,-4.847l1.375,-1.375l-1.414,-1.414l-1.375,1.375c-2.824,-3.135 -4.612,-7.204 -4.847,-11.688l1.949,0l0,-2l-1.949,0c0.235,-4.484 2.024,-8.553 4.847,-11.688l1.375,1.375l1.414,-1.414l-1.375,-1.375c3.135,-2.824 7.204,-4.612 11.688,-4.847l0,1.949l2,0l0,-1.961c1.438,0.076 2.862,0.318 4.255,0.72c1.156,6.611 6.374,11.829 12.986,12.986c0.401,1.393 0.643,2.817 0.72,4.255zm-18.961,24c-12.683,0 -23,-10.317 -23,-23s10.317,-23 23,-23c1.706,0 3.407,0.201 5.072,0.577c-0.042,0.47 -0.072,0.943 -0.072,1.423c0,0.209 0.023,0.413 0.031,0.621c-1.65,-0.409 -3.336,-0.621 -5.031,-0.621c-11.579,0 -21,9.421 -21,21s9.421,21 21,21s21,-9.421 21,-21c0,-1.695 -0.212,-3.381 -0.621,-5.031c0.208,0.008 0.412,0.031 0.621,0.031c0.48,0 0.953,-0.03 1.423,-0.072c0.376,1.665 0.577,3.366 0.577,5.072c0,12.683 -10.317,23 -23,23z"/>
  <path fill="#410a1d" id="svg_5" d="m29,38c0,-1.302 -0.839,-2.402 -2,-2.816l0,-12.184l-2,0l0,12.184c-1.161,0.414 -2,1.514 -2,2.816c0,1.654 1.346,3 3,3c0.462,0 0.894,-0.113 1.285,-0.301l7.008,7.008l1.414,-1.414l-7.008,-7.008c0.188,-0.391 0.301,-0.823 0.301,-1.285zm-4,0c0,-0.552 0.448,-1 1,-1s1,0.448 1,1s-0.448,1 -1,1s-1,-0.448 -1,-1z"/>
  <path fill="#410a1d" id="svg_6" d="m56,35c-1.654,0 -3,1.346 -3,3c0,1.251 0.771,2.324 1.862,2.773c-0.627,6.584 -3.499,12.781 -8.152,17.527l1.428,1.4c4.999,-5.098 8.074,-11.763 8.725,-18.842c1.232,-0.373 2.137,-1.505 2.137,-2.858c0,-1.654 -1.346,-3 -3,-3zm0,4c-0.552,0 -1,-0.448 -1,-1s0.448,-1 1,-1s1,0.448 1,1s-0.448,1 -1,1z"/>
  <path fill="#410a1d" id="svg_7" d="m6.283,16.733c4.658,-4.321 10.651,-6.978 16.949,-7.579c0.454,1.083 1.523,1.846 2.768,1.846c1.654,0 3,-1.346 3,-3s-1.346,-3 -3,-3c-1.352,0 -2.485,0.905 -2.858,2.137c-6.771,0.624 -13.214,3.489 -18.218,8.13l1.359,1.466zm19.717,-9.733c0.552,0 1,0.448 1,1s-0.448,1 -1,1s-1,-0.448 -1,-1s0.448,-1 1,-1z"/>
 </g>
</svg>