<svg width="32" height="32" xmlns="http://www.w3.org/2000/svg">

 <g>
  <title>background</title>
  <rect fill="none" id="canvas_background" height="402" width="582" y="-1" x="-1"/>
 </g>
 <g>
  <title>Layer 1</title>
  <path id="svg_2" fill="#410a1d" d="m30.5,27.955381l-29,0c-0.276,0 -0.5,-0.224 -0.5,-0.5l0,-23c0,-0.276 0.224,-0.5 0.5,-0.5l29,0c0.276,0 0.5,0.224 0.5,0.5l0,23c0,0.276 -0.224,0.5 -0.5,0.5zm-28.5,-1l28,0l0,-22l-28,0l0,22z"/>
  <path id="svg_3" fill="#410a1d" d="m28.5,26l-23,0c-0.276,0 -0.5,-0.224 -0.5,-0.5s0.224,-0.5 0.5,-0.5l22.5,0l0,-18.5c0,-0.276 0.224,-0.5 0.5,-0.5s0.5,0.224 0.5,0.5l0,19c0,0.276 -0.224,0.5 -0.5,0.5z"/>
  <path id="svg_4" fill="#410a1d" d="m3.5,25.955381c-0.276,0 -0.5,-0.224 -0.5,-0.5l0,-19c0,-0.276 0.224,-0.5 0.5,-0.5l23,0c0.276,0 0.5,0.224 0.5,0.5s-0.224,0.5 -0.5,0.5l-22.5,0l0,18.5c0,0.276 -0.224,0.5 -0.5,0.5z"/>
  <path id="svg_5" fill="#410a1d" d="m16.834,26c-2.557,0 -4.2,-2.038 -5.94,-4.195c-1.905,-2.363 -3.875,-4.805 -7.228,-4.805c-0.276,0 -0.5,-0.224 -0.5,-0.5s0.224,-0.5 0.5,-0.5c3.832,0 6.05,2.751 8.007,5.178c1.654,2.051 3.082,3.822 5.161,3.822c0.276,0 0.5,0.224 0.5,0.5s-0.224,0.5 -0.5,0.5z"/>
  <path id="svg_6" fill="#410a1d" d="m11.612,22.077c-0.276,0 -0.5,-0.224 -0.5,-0.5s0.224,-0.5 0.5,-0.5c5.047,0 7.093,-2.524 9.07,-4.965c1.801,-2.223 3.664,-4.521 7.642,-4.607c0.279,-0.01 0.505,0.214 0.511,0.489c0.006,0.276 -0.213,0.505 -0.489,0.511c-3.514,0.075 -5.077,2.004 -6.886,4.237c-2.026,2.5 -4.323,5.335 -9.848,5.335z"/>
  <path id="svg_8" fill="#410a1d" d="m13,15c-1.654,0 -3,-1.346 -3,-3s1.346,-3 3,-3s3,1.346 3,3s-1.346,3 -3,3zm0,-5c-1.103,0 -2,0.897 -2,2s0.897,2 2,2s2,-0.897 2,-2s-0.897,-2 -2,-2z"/>
 </g>
</svg>